<svg width="40" height="41" viewBox="0 0 40 41" fill="none" xmlns="http://www.w3.org/2000/svg">
<path d="M37.0636 10.0049L39.0036 8.06519C39.3259 7.74261 39.4321 7.26227 39.2755 6.83411C39.119 6.40564 38.728 6.10718 38.2733 6.06873L34.6744 5.76508L34.3707 2.16614C34.3326 1.71173 34.0338 1.3208 33.6057 1.16425C33.1775 1.00739 32.6971 1.11359 32.3746 1.43616L30.4346 3.37585C27.2974 1.45233 23.7103 0.439453 20 0.439453C14.6579 0.439453 9.63531 2.51984 5.85785 6.2973C2.08038 10.0748 0 15.0974 0 20.4395C0 25.7816 2.08038 30.8041 5.85785 34.5816C9.63531 38.3591 14.6579 40.4395 20 40.4395C25.3421 40.4395 30.3647 38.3591 34.1422 34.5816C37.9196 30.8041 40 25.7816 40 20.4395C40 16.7291 38.9871 13.1424 37.0636 10.0049ZM32.4219 6.94824C32.4701 7.5177 32.9218 7.96936 33.4912 8.01758L35.5618 8.19214L32.7591 10.9949L29.7025 10.737L29.4446 7.68036L32.2473 4.87762L32.4219 6.94824ZM23.9844 20.4395C23.9844 22.6364 22.197 24.4238 20 24.4238C17.803 24.4238 16.0156 22.6364 16.0156 20.4395C16.0156 18.2425 17.803 16.4551 20 16.4551C20.6729 16.4551 21.3068 16.6232 21.8631 16.9189L19.1714 19.6109C18.7137 20.0684 18.7137 20.8102 19.1714 21.268C19.4 21.4969 19.7 21.6113 20 21.6113C20.3 21.6113 20.6 21.4969 20.8286 21.268L23.5205 18.5764C23.8162 19.1327 23.9844 19.7665 23.9844 20.4395ZM23.5666 15.2155C22.5504 14.5197 21.322 14.1113 20 14.1113C16.5106 14.1113 13.6719 16.9501 13.6719 20.4395C13.6719 23.9288 16.5106 26.7676 20 26.7676C23.4894 26.7676 26.3281 23.9288 26.3281 20.4395C26.3281 19.1174 25.9198 17.8891 25.224 16.8729L28.5699 13.5269C30.0986 15.4184 31.0156 17.8238 31.0156 20.4395C31.0156 26.5134 26.0739 31.4551 20 31.4551C13.9261 31.4551 8.98438 26.5134 8.98438 20.4395C8.98438 14.3655 13.9261 9.42383 20 9.42383C22.6157 9.42383 25.0211 10.3409 26.9125 11.8695L23.5666 15.2155ZM32.4847 32.9242C29.1501 36.2592 24.7162 38.0957 20 38.0957C15.2838 38.0957 10.8499 36.2592 7.51526 32.9242C4.1803 29.5895 2.34375 25.1556 2.34375 20.4395C2.34375 15.7233 4.1803 11.2894 7.51526 7.95471C10.8499 4.61975 15.2838 2.7832 20 2.7832C23.0853 2.7832 26.0739 3.57574 28.7244 5.08606L27.4026 6.40778C27.189 6.6214 27.0673 6.90765 27.0596 7.20642C27.0587 7.24915 27.0599 7.29187 27.0633 7.3349L27.2211 9.20471C25.1376 7.86072 22.6584 7.08008 20 7.08008C12.6337 7.08008 6.64062 13.0731 6.64062 20.4395C6.64062 27.8058 12.6337 33.7988 20 33.7988C27.3663 33.7988 33.3594 27.8058 33.3594 20.4395C33.3594 17.7811 32.5787 15.3018 31.2347 13.2184L33.1046 13.3762C33.1375 13.3786 33.1705 13.3801 33.2031 13.3801C33.2086 13.3801 33.2144 13.3795 33.2199 13.3792C33.2355 13.3792 33.2507 13.378 33.2663 13.3771C33.2916 13.3755 33.3173 13.374 33.3423 13.371C33.3578 13.3688 33.3734 13.3664 33.389 13.364C33.4137 13.36 33.4381 13.3554 33.4625 13.3499C33.4781 13.3463 33.4933 13.3423 33.5086 13.3383C33.5324 13.3319 33.5559 13.3246 33.5794 13.3167C33.5947 13.3115 33.6096 13.3063 33.6246 13.3005C33.6475 13.2916 33.67 13.2819 33.6926 13.2712C33.707 13.2648 33.7213 13.2584 33.7357 13.251C33.7582 13.2394 33.7802 13.2266 33.8019 13.2138C33.815 13.2059 33.8281 13.1985 33.8409 13.1906C33.8641 13.1754 33.8864 13.1589 33.9087 13.1421C33.9191 13.1342 33.9297 13.1271 33.9398 13.1189C33.9716 13.0933 34.0024 13.0661 34.0317 13.0368L35.3534 11.7151C36.8637 14.3655 37.6562 17.3541 37.6562 20.4395C37.6562 25.1556 35.8197 29.5895 32.4847 32.9242Z" fill="#34D27B"/>
</svg>
