<svg width="38" height="39" viewBox="0 0 38 39" fill="none" xmlns="http://www.w3.org/2000/svg">
<g clip-path="url(#clip0_701_240)">
<path d="M36.8864 38.9316H1.11327C0.498449 38.9316 0 38.4332 0 37.8183C0 37.2035 0.498449 36.7051 1.11327 36.7051H36.8864C37.5013 36.7051 37.9997 37.2035 37.9997 37.8183C37.9997 38.4332 37.5013 38.9316 36.8864 38.9316Z" fill="#7879F1"/>
<path d="M7.86714 38.9316H3.41405C2.79923 38.9316 2.30078 38.4331 2.30078 37.8183V29.6543C2.30078 28.6312 3.13314 27.7988 4.15624 27.7988H7.12496C8.14806 27.7988 8.98042 28.6312 8.98042 29.6543V37.8183C8.98042 38.4331 8.48197 38.9316 7.86714 38.9316ZM4.52733 36.705H6.75387V30.0254H4.52733V36.705ZM7.12496 30.0254H7.1257H7.12496Z" fill="#7879F1"/>
<path d="M16.7734 38.9315H12.3203C11.7055 38.9315 11.207 38.4331 11.207 37.8182V26.9824C11.207 25.9593 12.0394 25.127 13.0625 25.127H16.0312C17.0543 25.127 17.8867 25.9593 17.8867 26.9824V37.8182C17.8867 38.4331 17.3882 38.9315 16.7734 38.9315ZM13.4336 36.705H15.6601V27.3535H13.4336V36.705ZM16.0312 27.3535H16.032H16.0312Z" fill="#7879F1"/>
<path d="M25.6796 38.9315H21.2266C20.6117 38.9315 20.1133 38.433 20.1133 37.8182V22.9004C20.1133 21.8773 20.9456 21.0449 21.9687 21.0449H24.9375C25.9606 21.0449 26.7929 21.8773 26.7929 22.9004V37.8182C26.7929 38.433 26.2945 38.9315 25.6796 38.9315ZM22.3398 36.705H24.5664V23.2715H22.3398V36.705ZM24.9375 23.2715H24.9382H24.9375Z" fill="#7879F1"/>
<path d="M34.5859 38.9314H30.1328C29.518 38.9314 29.0195 38.433 29.0195 37.8182V15.4785C29.0195 14.4554 29.8519 13.623 30.875 13.623H33.8437C34.8668 13.623 35.6992 14.4554 35.6992 15.4785V37.8182C35.6992 38.433 35.2007 38.9314 34.5859 38.9314ZM31.2461 36.7049H33.4726V15.8496H31.2461V36.7049ZM33.8437 15.8496H33.8445H33.8437Z" fill="#7879F1"/>
<path d="M1.11327 24.8525C0.498449 24.8525 0 24.354 0 23.7392C0 23.1244 0.498449 22.626 1.11327 22.626C7.65976 22.626 14.7875 20.2421 21.1834 15.9134C27.0675 11.9313 31.7562 6.71076 34.0471 1.59052C34.2983 1.02928 34.9568 0.777831 35.518 1.02906C36.0792 1.28014 36.3306 1.93868 36.0795 2.49992C33.6239 7.98813 28.6493 13.5493 22.4314 17.7574C15.6709 22.3327 8.09995 24.8525 1.11327 24.8525Z" fill="#7879F1"/>
<path d="M36.8859 9.96229C36.3943 9.96229 35.9445 9.63425 35.8113 9.13684L34.2764 3.40861L28.5482 4.94351C27.954 5.10278 27.3438 4.75025 27.1847 4.15635C27.0256 3.56246 27.378 2.95202 27.9719 2.79289L34.7754 0.969871C35.3696 0.810673 35.9798 1.16321 36.1389 1.75703L37.9619 8.56061C38.1211 9.1545 37.7687 9.76495 37.1748 9.92407C37.0782 9.9499 36.9813 9.96229 36.8859 9.96229Z" fill="#7879F1"/>
</g>
<defs>
<clipPath id="clip0_701_240">
<rect width="38" height="38" fill="white" transform="translate(0 0.931641)"/>
</clipPath>
</defs>
</svg>
