<svg width="42" height="42" viewBox="0 0 42 42" fill="none" xmlns="http://www.w3.org/2000/svg">
<path d="M40.9413 21.017C40.9405 20.6113 40.7298 20.2349 40.3844 20.022L36.3192 17.516L40.3887 14.9831C40.7319 14.7696 40.9407 14.3942 40.9413 13.99C40.942 13.5858 40.7342 13.2098 40.3916 12.9952L21.5636 1.19836C21.183 0.959922 20.6997 0.959922 20.3191 1.19836L1.49109 12.9952C1.14859 13.2098 0.94086 13.5858 0.941407 13.99C0.942032 14.3942 1.15086 14.7696 1.49406 14.9831L5.53561 17.4986L1.49226 20.0259C1.1493 20.2402 0.941095 20.6163 0.941485 21.0207C0.941876 21.4252 1.15078 21.8008 1.49414 22.0145L5.53569 24.53L1.49226 27.0571C1.14984 27.2711 0.94172 27.6464 0.941485 28.0502C0.941251 28.454 1.14898 28.8295 1.49117 29.0439L20.3192 40.8407C20.5095 40.9599 20.7255 41.0195 20.9414 41.0195C21.1573 41.0195 21.3734 40.9599 21.5636 40.8407L40.3916 29.0439C40.7349 28.8288 40.9428 28.4516 40.9413 28.0465C40.9398 27.6415 40.7292 27.2658 40.3844 27.0533L36.3192 24.5473L40.3887 22.0144C40.7331 21.8001 40.9422 21.4227 40.9413 21.017ZM4.32577 13.9851L20.9414 3.57444L37.557 13.9851C37.3974 14.0845 21.4176 24.0304 20.9414 24.3268L4.32577 13.9851ZM37.5494 28.059L20.9414 38.4648L4.32249 28.0521L7.7513 25.909L20.3222 33.7332C20.5117 33.8512 20.7266 33.9102 20.9414 33.9102C21.1563 33.9102 21.3711 33.8512 21.5606 33.7332L34.0968 25.9306L37.5494 28.059ZM20.9414 31.358L4.32772 21.0176L7.7513 18.8778L20.3222 26.702C20.5117 26.82 20.7266 26.879 20.9414 26.879C21.1563 26.879 21.3711 26.82 21.5606 26.702L34.0968 18.8994L37.5441 21.0244C37.4488 21.0837 21.3813 31.0842 20.9414 31.358Z" fill="#FD695A" stroke="#FD695A" stroke-width="0.5"/>
</svg>
