<svg width="36" height="32" viewBox="0 0 36 32" fill="none" xmlns="http://www.w3.org/2000/svg">
<path d="M10.2569 19.903L10.2568 19.9029C10.0758 19.7486 9.97168 19.523 9.97168 19.285C9.97168 19.047 10.0764 18.8217 10.2566 18.6677L10.2569 18.6674L13.8891 15.5746L13.8892 15.5745L14.0513 15.7649L10.2569 19.903ZM10.2569 19.903L13.8892 22.9959C13.8892 22.9959 13.8892 22.9959 13.8892 22.9959C14.0415 23.1256 14.2289 23.1896 14.4147 23.1896C14.6437 23.1896 14.8723 23.0927 15.0329 22.904L15.0329 22.904M10.2569 19.903L15.0329 22.904M15.0329 22.904C15.3231 22.5631 15.2824 22.051 14.9411 21.7604C14.9411 21.7604 14.9411 21.7604 14.941 21.7603L12.0344 19.285L14.9409 16.8099C14.9409 16.8099 14.9409 16.8098 14.941 16.8098L15.0329 22.904Z" fill="#53C8FF" stroke="#53C8FF" stroke-width="0.5"/>
<path d="M23.9653 19.285L21.0587 21.7604L21.0585 21.7605C20.7179 22.0509 20.6764 22.5628 20.967 22.9039C20.9671 22.904 20.9672 22.9041 20.9672 22.9041L21.1575 22.7419L23.9653 19.285ZM23.9653 19.285L24.1581 19.1209L21.2207 16.6194C20.9849 16.4186 20.9564 16.0643 21.1575 15.8282C21.3583 15.5923 21.7128 15.5638 21.9484 15.7649L22.1105 15.5745L22.1106 15.5746C22.1106 15.5747 22.1107 15.5747 22.1107 15.5748L25.7428 18.6674L25.7429 18.6675C25.9238 18.8218 26.028 19.0473 26.028 19.285C26.028 19.523 25.9239 19.7486 25.7429 19.9029L25.7428 19.903L22.1105 22.9959M23.9653 19.285L21.0587 16.8098L21.2206 16.6195L21.0587 16.8097C20.7176 16.5194 20.6766 16.0074 20.9671 15.6661L21.1574 15.8281L20.9671 15.6661L22.1105 22.9959M22.1105 22.9959C22.1105 22.9959 22.1105 22.9959 22.1105 22.9959L22.1105 22.9959Z" fill="#53C8FF" stroke="#53C8FF" stroke-width="0.5"/>
<path d="M16.5455 25.4921L16.5461 25.4922C16.6014 25.5037 16.6573 25.5097 16.7136 25.5097C17.0892 25.5097 17.4261 25.2478 17.5067 24.8655L17.5067 24.8655L19.7704 14.1174L19.7705 14.1173C19.8628 13.6787 19.5821 13.2486 19.1438 13.1562L19.1438 13.1562C18.7051 13.0639 18.275 13.3445 18.1827 13.7828L18.1827 13.7828L15.9189 24.5309C15.8265 24.9692 16.1072 25.3997 16.5455 25.4921Z" fill="#53C8FF" stroke="#53C8FF" stroke-width="0.5"/>
<path d="M4.76887 31.3646H31.2311C33.4472 31.3646 35.25 29.5622 35.25 27.3458V4.88606C35.25 2.66997 33.4472 0.867188 31.2311 0.867188H4.76887C2.55278 0.867188 0.75 2.66997 0.75 4.88606V27.3458C0.75 29.5622 2.5528 31.3646 4.76887 31.3646ZM2.37264 4.88606C2.37264 3.56507 3.44788 2.48983 4.76887 2.48983H31.2311C32.5521 2.48983 33.6274 3.56507 33.6274 4.88606V27.3458C33.6274 28.6668 32.5521 29.742 31.2311 29.742H4.76887C3.44788 29.742 2.37264 28.6668 2.37264 27.3458V4.88606Z" fill="#53C8FF" stroke="#53C8FF" stroke-width="0.5"/>
<path d="M1.56132 10.3551H34.4387C34.8869 10.3551 35.25 9.99192 35.25 9.54374C35.25 9.09597 34.8869 8.73242 34.4387 8.73242H1.56132C1.11305 8.73242 0.75 9.09597 0.75 9.54374C0.75 9.99192 1.11315 10.3551 1.56132 10.3551Z" fill="#53C8FF" stroke="#53C8FF" stroke-width="0.5"/>
<path d="M11.877 7.41992C10.8978 7.41992 10.1006 6.62273 10.1006 5.64355C10.1006 4.66406 10.8978 3.86719 11.877 3.86719C12.8564 3.86719 13.6533 4.66406 13.6533 5.64355C13.6533 6.62273 12.8564 7.41992 11.877 7.41992ZM11.877 4.98983C11.5167 4.98983 11.2232 5.28302 11.2232 5.64355C11.2232 6.00409 11.5167 6.29728 11.877 6.29728C12.2375 6.29728 12.5307 6.00409 12.5307 5.64355C12.5307 5.28302 12.2375 4.98983 11.877 4.98983Z" fill="#53C8FF"/>
<path d="M6.41894 7.40234C5.43945 7.40234 4.64258 6.60547 4.64258 5.62598C4.64258 4.64648 5.43945 3.84961 6.41894 3.84961C7.39844 3.84961 8.19531 4.64648 8.19531 5.62598C8.19531 6.60547 7.39844 7.40234 6.41894 7.40234ZM6.41894 4.97225C6.05872 4.97225 5.76522 5.26575 5.76522 5.62598C5.76522 5.98651 6.05872 6.2797 6.41894 6.2797C6.77948 6.2797 7.07267 5.98651 7.07267 5.62598C7.07267 5.26575 6.77948 4.97225 6.41894 4.97225Z" fill="#53C8FF"/>
<path d="M17.3346 7.43719C16.3555 7.43719 15.5586 6.64031 15.5586 5.66082C15.5586 4.68164 16.3555 3.88477 17.3346 3.88477C18.3141 3.88477 19.111 4.68164 19.111 5.66082C19.111 6.64031 18.3141 7.43719 17.3346 7.43719ZM17.3346 5.00709C16.9744 5.00709 16.6812 5.30028 16.6812 5.66082C16.6812 6.02136 16.9744 6.31455 17.3346 6.31455C17.6952 6.31455 17.9884 6.02136 17.9884 5.66082C17.9884 5.30028 17.6952 5.00709 17.3346 5.00709Z" fill="#53C8FF"/>
</svg>
