<svg width="197" height="46" viewBox="0 0 197 46" fill="none" xmlns="http://www.w3.org/2000/svg">
<path fill-rule="evenodd" clip-rule="evenodd" d="M0 41.8546C0 44.3692 1.64419 45.9997 4.17875 45.9997L16.3881 46C23.6716 46 29.6297 43.5553 33.6806 39.2757H0V41.8546ZM16.3881 0.000229999L4.17875 0C1.64419 0 0 1.63092 0 4.14527V6.72424H33.6806C29.6297 2.44466 23.6716 0.000229999 16.3881 0.000229999ZM27.0432 29.5544C27.0432 31.5885 28.379 32.9082 30.4385 32.9082H37.7545C38.5837 30.8668 39.1409 28.6224 39.4 26.2005H30.4385C28.379 26.2005 27.0432 27.52 27.0432 29.5544ZM16.9026 16.4622C16.9026 18.4965 18.2384 19.816 20.2979 19.816H39.4C39.1409 17.3941 38.5837 15.1498 37.7545 13.1083H20.2979C18.2384 13.1083 16.9026 14.4278 16.9026 16.4622ZM20.2956 29.5544C20.2956 27.52 18.9598 26.2005 16.9003 26.2005H0V32.9082H16.9003C18.9598 32.9082 20.2956 31.5887 20.2956 29.5544ZM10.155 16.4622C10.155 14.4278 8.81916 13.1083 6.75971 13.1083H0V19.816H6.75971C8.81916 19.816 10.155 18.4965 10.155 16.4622Z" fill="#0062FF"/>
<path fill-rule="evenodd" clip-rule="evenodd" d="M85.9199 22.3082C86.4639 19.6831 88.2214 18.3484 90.5313 18.3484C92.8213 18.3484 94.4958 19.743 95.0298 22.3082H85.9199ZM90.6569 13.8008C84.7755 13.8008 81.1172 18.4739 81.1172 24.19C81.1172 30.11 85.0263 34.5008 90.8362 34.5008C94.8431 34.5008 97.2738 32.6579 98.778 30.3376L95.0376 27.9612C94.097 29.2388 92.5924 29.9138 90.9797 29.9138C88.3412 29.9138 86.5746 28.6853 85.9723 26.2286H95.8449C95.8439 26.2318 95.8433 26.2349 95.8423 26.2383L99.4414 26.2594C99.5779 25.6129 99.6584 24.9449 99.6584 24.19C99.6584 19.211 96.5743 13.8008 90.6569 13.8008Z" fill="#0062FF"/>
<path fill-rule="evenodd" clip-rule="evenodd" d="M66.0525 29.9004C62.4337 29.9004 60.2583 27.3259 60.2583 24.1503C60.2583 20.9747 62.4756 18.4004 66.0525 18.4004C69.6294 18.4004 71.8466 20.9747 71.8466 24.1503C71.8466 27.3259 69.6712 29.9004 66.0525 29.9004ZM71.4523 16.8396C70.0073 15.1173 67.9558 14.0616 65.409 14.0616C59.7169 14.0616 55.623 18.6371 55.623 24.281C55.623 29.9251 59.678 34.5004 65.409 34.5004C67.9558 34.5004 70.0073 33.4446 71.4523 31.7223V33.9972H76.4819V6.90039H71.4523V16.8396Z" fill="#0062FF"/>
<path fill-rule="evenodd" clip-rule="evenodd" d="M115.04 23.8096C116.405 24.7562 117.271 26.1757 117.271 28.0487C117.271 31.8343 114.699 34.4609 109.892 34.4609C105.368 34.4609 102.943 32.1602 101.977 29.8371L106.129 27.4308C106.129 27.4308 106.688 29.9415 109.818 29.9415C111.755 29.9415 112.352 29.0916 112.352 28.3411C112.352 27.9934 112.24 27.3536 110.861 26.8126C108.092 25.7267 102.738 25.2394 102.738 20.2849C102.738 16.2293 105.941 14.0663 109.892 14.0663C113.587 14.0663 115.96 16.3477 116.861 18.1228L112.799 20.4781C112.799 20.4781 112.016 18.5081 109.93 18.5081C107.843 18.5081 107.657 19.7057 107.657 20.0531C107.657 21.0672 108.698 21.4835 110.936 22.1391C112.26 22.5273 113.621 22.8798 115.044 23.806C115.043 23.8072 115.041 23.8084 115.04 23.8096ZM197 19.3966H192.789V27.4306C192.789 29.9416 195.249 29.4007 197 29.4007V33.9198C197 33.9198 196.078 34.0744 194.466 34.0744C190.889 34.0744 187.983 32.993 187.983 27.4306V19.3966H184.74V14.6069H187.983V9.19922H192.789V14.6069H197V19.3966ZM129.221 29.5938C131.216 29.5938 132.75 28.6075 133.525 26.9895L137.692 29.466C136.059 32.434 133.017 34.4992 129.221 34.4992C123.464 34.4992 119.439 29.9338 119.439 24.3022C119.439 18.6703 123.501 14.1048 129.221 14.1048C132.961 14.1048 135.992 16.1362 137.642 19.0649L133.485 21.598C132.694 20.0012 131.173 19.0103 129.221 19.0103C126.312 19.0103 124.247 21.3795 124.247 24.3022C124.247 27.2246 126.293 29.5938 129.221 29.5938Z" fill="#0062FF"/>
<path fill-rule="evenodd" clip-rule="evenodd" d="M173.411 29.5423C170.28 29.5423 168.397 27.1195 168.397 24.1312C168.397 21.1428 170.316 18.7203 173.411 18.7203C176.506 18.7203 178.425 21.1428 178.425 24.1312C178.425 27.1195 176.542 29.5423 173.411 29.5423ZM174.008 13.9999C179.294 13.9999 183.095 18.536 183.095 24.1312C183.095 29.7266 179.33 34.2624 174.008 34.2624C171.644 34.2624 169.739 33.2159 168.397 31.5084V41.4004H163.727V14.5373H168.397V16.7539C169.739 15.0465 171.644 13.9999 174.008 13.9999ZM154.75 33.7634V14.5755H159.42V33.7634H154.75ZM146.047 17.8532C146.948 15.5279 148.784 14.198 151.549 14.192V19.7181C148.307 19.393 145.965 21.1019 146.051 25.1386C146.049 25.1357 146.048 25.1326 146.047 25.1295V33.7634H141.377V14.5757H146.047V17.8532ZM154.75 12.0148V6.90039H159.573V12.0148H154.75Z" fill="#0062FF"/>
</svg>
