<svg width="98" height="46" viewBox="0 0 98 46" fill="none" xmlns="http://www.w3.org/2000/svg">
<path d="M10.6544 3.50392V16.4587C10.6544 16.4587 15.2762 16.4587 17.7497 16.2732C19.6949 15.9369 20.0529 15.7514 20.411 13.8302L21.1271 11.0163H23.2426L22.8845 17.1659L23.0723 23.4665H20.9393L20.411 21.0062C19.8826 19.2553 19.1666 18.8995 17.7497 18.7314C15.977 18.5459 10.6544 18.5459 10.6544 18.5459V29.4113C10.6544 31.5007 11.7285 32.3933 14.2021 32.3933H21.6554C23.9586 32.3933 26.2597 32.208 27.694 28.8894L29.6218 24.6783H31.412C31.2242 25.5537 30.3379 33.2689 30.1676 35.0047C30.1676 35.0047 23.4303 34.8364 20.5987 34.8364H7.82286L0.199219 35.0047V33.1005L2.67275 32.5616C4.46294 32.208 4.99127 31.6861 4.99127 30.2867C4.99127 30.2867 5.17902 25.5537 5.17902 17.6683C5.17902 9.80231 4.99127 5.06719 4.99127 5.06719C4.99127 3.49958 4.46294 3.14597 2.67275 2.79234L0.199219 2.27484V0.353625L7.65257 0.504562H21.8431C24.6747 0.504562 29.4493 0 29.4493 0C29.4493 0 29.279 2.96484 29.0913 9.97267H27.1461L26.43 7.51238C25.7314 4.36211 24.6725 2.7945 22.712 2.7945H11.5582C10.6544 2.79666 10.6544 2.96484 10.6544 3.50392ZM39.3761 4.88606H41.5091V12.2475L48.7922 11.8939L48.4342 15.2296L41.3387 14.6905V27.6625C41.3387 31.3346 42.5833 32.7491 44.7163 32.7491C46.644 32.7491 48.0761 31.6882 48.6043 30.8128L49.6609 32.0419C48.6043 34.485 45.6025 35.7139 42.7534 35.7139C39.2234 35.7139 36.3569 33.6247 36.3569 29.5989V14.8738H32.1259V13.1229C35.6757 12.7693 38.3195 10.6627 39.3761 4.88606ZM54.6408 27.4749L56.0555 30.8107C56.584 32.208 57.8282 33.6247 60.6599 33.6247C63.6791 33.6247 64.9237 32.0419 64.9237 30.1207C64.9237 24.1565 53.0363 25.9095 53.0363 17.8559C53.0363 13.3084 56.7541 11.1845 61.5461 11.1845C63.6791 11.1845 66.8688 11.5381 68.4711 12.2454C68.1131 13.9962 67.9255 16.2711 67.9255 18.0241L66.168 18.1923L64.9237 14.6884C64.5657 13.8302 63.1335 13.1208 61.376 13.1208C59.2429 13.1208 57.1122 13.9962 57.1122 16.2711C57.1122 21.6962 69.3576 20.4822 69.3576 28.5358C69.3576 33.1005 65.2817 35.5436 60.3019 35.5436C56.584 35.5436 52.8484 34.1291 52.8484 34.1291C53.2064 32.0396 53.0363 29.767 52.8484 27.4749H54.6408ZM68.4734 44.2871C69.0019 42.366 69.3599 39.9251 69.7179 37.6331L71.6631 37.4648L72.3792 41.1371C72.5493 42.0124 73.0778 42.7196 74.4947 42.7196C76.7979 42.7196 79.8171 41.3224 82.664 36.4192C81.4023 33.4369 77.6841 23.8179 74.3068 16.4565C73.4206 14.5202 73.2501 14.3499 72.0211 13.9962L71.1171 13.6599V11.8917L76.455 12.0772L83.0045 11.7235V13.4766L81.4023 13.8302C80.1577 13.9984 79.6447 14.6884 79.6447 15.3978C79.6447 15.5832 79.6447 15.7514 79.8149 16.105C80.1554 17.1659 83.0045 25.0341 85.1376 30.2889C86.8951 26.6168 90.2724 18.3799 90.8006 16.9805C90.9885 16.2732 91.1586 16.105 91.1586 15.5832C91.1586 14.6905 90.6304 14.1687 89.4014 13.8324L88.1394 13.4766V11.7257L93.1192 11.8939L97.7236 11.7257V13.4766L96.8371 14.1666C95.0644 14.8738 94.8768 15.042 94.1759 16.4565L86.3818 34.4805C81.7603 44.8241 76.968 45.6997 73.6059 45.6997C71.4752 45.7016 69.8729 45.1627 68.4734 44.2871Z" fill="#FB6F20"/>
</svg>
