<svg width="153" height="46" viewBox="0 0 153 46" fill="none" xmlns="http://www.w3.org/2000/svg">
<path d="M0 32.538V0.673828H5.64393V32.538H0Z" fill="#3D3D3F"/>
<path d="M20.0915 9.42188C12.8553 9.42188 7.84766 14.9397 7.84766 21.2553C7.84766 28.304 13.2954 33.1598 20.1478 33.1598C26.6511 33.1598 32.2943 28.3933 32.2943 21.2401C32.2943 15.2249 27.6181 9.42188 20.0915 9.42188ZM20.0251 14.8214C23.812 14.8214 26.5994 17.7449 26.5994 21.2756C26.5994 25.0191 23.5262 27.75 20.1273 27.75C16.1111 27.75 13.5836 24.5931 13.5836 21.2858C13.5836 17.6604 16.4372 14.8214 20.0251 14.8214Z" fill="#3D3D3F"/>
<path d="M46.4743 9.42188C39.2382 9.42188 34.2305 14.9397 34.2305 21.2553C34.2305 28.304 39.6782 33.1598 46.5307 33.1598C53.034 33.1598 58.6773 28.3933 58.6773 21.2401C58.6773 17.0278 56.8381 15.1587 56.8381 15.1587L58.4022 14.6267V10.084H50.3863C50.3863 10.084 48.6485 9.42188 46.4743 9.42188ZM46.408 14.8214C50.195 14.8214 52.9825 17.7449 52.9825 21.2756C52.9825 25.0191 49.9093 27.75 46.5104 27.75C42.4941 27.75 39.9665 24.5931 39.9665 21.2858C39.9665 17.6604 42.82 14.8214 46.408 14.8214Z" fill="#3D3D3F"/>
<path d="M52.9421 34.0957C52.9421 37.8393 49.8689 40.5906 46.47 40.5906C42.4537 40.5906 39.9162 37.4032 39.9162 34.0957H34.1904C34.1904 41.1446 39.6382 46.0001 46.4903 46.0001C52.994 46.0001 58.6373 41.249 58.6373 34.0957H52.9421Z" fill="#3D3D3F"/>
<path d="M60.9385 32.5382V10.084H66.5824V32.5382H60.9385Z" fill="#3D3D3F"/>
<path d="M72.0626 32.5389V15.1141H69.0361V10.0847H72.0626V3.18945H77.7066V10.0847H80.8149V15.1141H77.7066V32.5389H72.0626Z" fill="#3D3D3F"/>
<path d="M67.4855 3.70651C67.4855 5.75358 65.8122 7.41303 63.7481 7.41303C61.6841 7.41303 60.0107 5.75358 60.0107 3.70651C60.0107 1.65947 61.6841 0 63.7481 0C65.8122 0 67.4855 1.65947 67.4855 3.70651Z" fill="#3D3D3F"/>
<path d="M93.5034 9.40625C86.2328 9.40625 81.5459 14.9269 81.5459 21.4577C81.5459 28.2065 86.2483 33.1744 93.621 33.1744C100.498 33.1744 103.881 28.9157 103.881 28.9157L100.108 25.1689C100.108 25.1689 97.2598 28.216 93.6925 28.216C90.7188 28.216 88.3414 26.57 87.5116 23.5516H105.098V22.0103C105.098 15.8604 101.509 9.40625 93.5034 9.40625ZM93.3243 14.3343C95.9243 14.3343 98.5833 15.7137 99.1779 19.0089H87.3583C87.8266 16.6926 89.8697 14.3343 93.3243 14.3343Z" fill="#3D3D3F"/>
<path d="M119.215 33.1778C111.924 33.1778 106.956 27.6705 106.956 21.177C106.956 14.4758 112.571 9.40234 119.192 9.40234C125.592 9.40234 128.869 13.8834 128.869 13.8834L124.931 17.7704C124.931 17.7704 122.651 14.848 119.165 14.848C115.302 14.848 112.66 17.779 112.66 21.263C112.66 24.9417 115.47 27.764 119.122 27.764C122.664 27.764 124.926 24.8464 124.926 24.8464L128.903 28.7312C128.903 28.7312 125.658 33.1778 119.215 33.1778Z" fill="#3D3D3F"/>
<path d="M130.956 32.5533V0.591797H136.6V12.3346C136.6 12.3346 138.761 9.40135 143.462 9.40135C149.372 9.40135 152.795 13.7583 152.795 19.3306V32.5533H147.152V20.1766C147.152 16.433 144.801 14.8798 142.198 14.8798C139.232 14.8798 136.6 16.554 136.6 20.4663V32.5533H130.956Z" fill="#3D3D3F"/>
</svg>
