<svg width="158" height="40" viewBox="0 0 158 40" fill="none" xmlns="http://www.w3.org/2000/svg">
<path d="M50.5742 31.3382L52.5401 26.8029C54.6643 28.3777 57.4865 29.1966 60.2768 29.1966C62.3378 29.1966 63.6379 28.4091 63.6379 27.2123C63.606 23.8737 51.3033 26.4879 51.2082 18.1099C51.1766 13.858 54.9814 10.5824 60.3719 10.5824C63.5744 10.5824 66.7769 11.3698 69.0599 13.1651L67.2207 17.795C65.1281 16.4721 62.528 15.5273 60.0548 15.5273C58.3741 15.5273 57.2645 16.3147 57.2645 17.3225C57.2961 20.5981 69.6939 18.8029 69.8209 26.8029C69.8209 31.1493 66.1111 34.2043 60.7841 34.2043C56.8839 34.2043 53.301 33.291 50.5742 31.3382ZM126.007 25.1651C125.024 26.8659 123.185 28.0313 121.061 28.0313C117.922 28.0313 115.385 25.5115 115.385 22.3934C115.385 19.2753 117.922 16.7556 121.061 16.7556C123.185 16.7556 125.024 17.921 126.007 19.6218L131.429 16.6296C129.4 13.0391 125.5 10.5824 121.061 10.5824C114.497 10.5824 109.17 15.8737 109.17 22.3934C109.17 28.9132 114.497 34.2043 121.061 34.2043C125.532 34.2043 129.4 31.7793 131.429 28.1571L126.007 25.1651ZM72.5477 0.787109H79.3333V33.7635H72.5477V0.787109ZM134.093 0.787109V33.7635H140.878V23.8737L148.932 33.7635H157.62L147.378 22.0154L156.859 11.0548H148.552L140.878 20.1572V0.787109H134.093ZM99.4994 25.2281C98.5164 26.8344 96.4871 28.0313 94.204 28.0313C91.065 28.0313 88.5283 25.5115 88.5283 22.3934C88.5283 19.2753 91.065 16.7556 94.204 16.7556C96.4871 16.7556 98.5164 18.0154 99.4994 19.6533V25.2281ZM99.4994 11.0548V13.732C98.3895 11.8737 95.6311 10.5824 92.7457 10.5824C86.7845 10.5824 82.0917 15.8107 82.0917 22.3619C82.0917 28.9132 86.7845 34.2043 92.7457 34.2043C95.6311 34.2043 98.3895 32.9132 99.4994 31.0549V33.7321H106.285V11.0548H99.4994Z" fill="#3D3D3F"/>
<path d="M8.6248 25.1966C8.6248 27.4958 6.75402 29.354 4.43936 29.354C2.12467 29.354 0.253906 27.4958 0.253906 25.1966C0.253906 22.8973 2.12467 21.0391 4.43936 21.0391H8.6248V25.1966ZM10.7175 25.1966C10.7175 22.8973 12.5883 21.0391 14.903 21.0391C17.2176 21.0391 19.0884 22.8973 19.0884 25.1966V35.5901C19.0884 37.8896 17.2176 39.7476 14.903 39.7476C12.5883 39.7476 10.7175 37.8896 10.7175 35.5901V25.1966Z" fill="#E01E5A"/>
<path d="M14.9024 8.5044C12.5878 8.5044 10.717 6.64615 10.717 4.34693C10.717 2.04772 12.5878 0.189453 14.9024 0.189453C17.2171 0.189453 19.0879 2.04772 19.0879 4.34693V8.5044H14.9024ZM14.9024 10.6147C17.2171 10.6147 19.0879 12.4729 19.0879 14.7721C19.0879 17.0713 17.2171 18.9296 14.9024 18.9296H4.40713C2.09245 18.9296 0.22168 17.0713 0.22168 14.7721C0.22168 12.4729 2.09245 10.6147 4.40713 10.6147H14.9024Z" fill="#36C5F0"/>
<path d="M31.6765 14.7721C31.6765 12.4729 33.5474 10.6147 35.862 10.6147C38.1766 10.6147 40.0475 12.4729 40.0475 14.7721C40.0475 17.0713 38.1766 18.9296 35.862 18.9296H31.6765V14.7721ZM29.5837 14.7721C29.5837 17.0713 27.713 18.9296 25.3983 18.9296C23.0836 18.9296 21.2129 17.0713 21.2129 14.7721V4.34693C21.2129 2.04772 23.0836 0.189453 25.3983 0.189453C27.713 0.189453 29.5837 2.04772 29.5837 4.34693V14.7721Z" fill="#2EB67D"/>
<path d="M25.3983 31.4329C27.713 31.4329 29.5837 33.2909 29.5837 35.5901C29.5837 37.8896 27.713 39.7476 25.3983 39.7476C23.0836 39.7476 21.2129 37.8896 21.2129 35.5901V31.4329H25.3983ZM25.3983 29.354C23.0836 29.354 21.2129 27.4958 21.2129 25.1966C21.2129 22.8973 23.0836 21.0391 25.3983 21.0391H35.8936C38.2082 21.0391 40.0791 22.8973 40.0791 25.1966C40.0791 27.4958 38.2082 29.354 35.8936 29.354H25.3983Z" fill="#ECB22E"/>
</svg>
