<svg width="155" height="46" viewBox="0 0 155 46" fill="none" xmlns="http://www.w3.org/2000/svg">
<path d="M23.2502 0.0761719C10.4491 0.0761719 0.0712891 10.3421 0.0712891 23.0055C0.0712891 35.6695 10.4491 45.9346 23.2502 45.9346C36.0527 45.9346 46.4293 35.6695 46.4293 23.0055C46.4293 10.3429 36.0527 0.0772673 23.2499 0.0772673L23.2502 0.0761719ZM33.8798 33.1469C33.4648 33.8206 32.5736 34.034 31.8925 33.6206C26.4504 30.3321 19.5994 29.5874 11.5311 31.4109C10.7536 31.5862 9.97857 31.1043 9.80142 30.3349C9.62346 29.5655 10.1086 28.7988 10.8881 28.6236C19.7175 26.628 27.2912 27.4872 33.4009 31.1809C34.0819 31.5944 34.2979 32.4732 33.8798 33.1469ZM36.7169 26.9035C36.1938 27.7446 35.081 28.0102 34.2314 27.4927C28.0009 23.7043 18.5036 22.6071 11.1341 24.8201C10.1784 25.1056 9.16895 24.5728 8.87887 23.629C8.59103 22.6835 9.12994 21.6869 10.084 21.3994C18.5019 18.8726 28.9669 20.0966 36.1218 24.4461C36.9717 24.9636 37.24 26.0643 36.7169 26.9038V26.9035ZM36.9604 20.4021C29.49 16.0127 17.1648 15.6091 10.0323 17.7506C8.88691 18.0942 7.67569 17.4546 7.32862 16.3216C6.98151 15.188 7.62754 13.9906 8.7737 13.6462C16.9613 11.1874 30.5723 11.6624 39.173 16.7134C40.2054 17.3182 40.5431 18.6344 39.9315 19.6522C39.3225 20.6713 37.9886 21.0073 36.9617 20.4021H36.9604ZM63.1334 21.2433C59.1309 20.2992 58.4195 19.6366 58.4195 18.2443C58.4195 16.9289 59.6708 16.0436 61.5334 16.0436C63.3382 16.0436 65.1261 16.7158 67.0026 18.0997C67.0582 18.1416 67.1302 18.1583 67.1993 18.1473C67.2713 18.1369 67.332 18.0989 67.3736 18.0416L69.3276 15.3167C69.408 15.2044 69.3857 15.0497 69.2779 14.964C67.0443 13.1916 64.531 12.33 61.5915 12.33C57.2709 12.33 54.2513 14.8953 54.2513 18.5657C54.2513 22.5017 56.8559 23.8954 61.3564 24.9712C65.1843 25.8438 65.832 26.5749 65.832 27.8815C65.832 29.33 64.5255 30.2308 62.422 30.2308C60.0857 30.2308 58.1789 29.4505 56.0477 27.6269C55.995 27.5803 55.923 27.5612 55.8565 27.5639C55.7848 27.5694 55.7209 27.6022 55.6766 27.6543L53.4847 30.2336C53.3933 30.3431 53.4043 30.5019 53.5095 30.595C55.9895 32.7856 59.0395 33.941 62.3332 33.941C66.9891 33.941 69.9977 31.4246 69.9977 27.5283C70.0057 24.2407 68.0159 22.4199 63.1415 21.2469L63.1334 21.2433ZM80.5322 17.3388C78.5143 17.3388 76.859 18.1251 75.4918 19.7365V17.9228C75.4918 17.7796 75.3755 17.663 75.2315 17.663H71.6471C71.5034 17.663 71.3872 17.7796 71.3872 17.9228V38.0756C71.3872 38.2178 71.5034 38.3356 71.6471 38.3356H75.2315C75.3755 38.3356 75.4918 38.2178 75.4918 38.0756V31.7149C76.859 33.229 78.5143 33.9711 80.5322 33.9711C84.2825 33.9711 88.08 31.1152 88.08 25.6557C88.0855 20.1951 84.288 17.3385 80.5348 17.3385L80.5322 17.3388ZM83.9115 25.6557C83.9115 28.4346 82.1816 30.3759 79.7016 30.3759C77.2523 30.3759 75.4033 28.347 75.4033 25.6557C75.4033 22.9642 77.2523 20.9358 79.7016 20.9358C82.1403 20.9355 83.9115 22.9201 83.9115 25.6555V25.6557ZM97.8089 17.3388C92.979 17.3388 89.1954 21.0177 89.1954 25.7151C89.1954 30.3622 92.9541 34.0011 97.7507 34.0011C102.597 34.0011 106.392 30.3349 106.392 25.6557C106.392 20.9925 102.622 17.3393 97.8089 17.3393V17.3388ZM97.8089 30.4033C95.2404 30.4033 93.3029 28.3607 93.3029 25.6544C93.3029 22.9357 95.1742 20.9629 97.7507 20.9629C100.336 20.9629 102.285 23.0047 102.285 25.7138C102.285 28.4319 100.403 30.4033 97.8089 30.4033ZM116.705 17.663H112.761V13.6746C112.761 13.5317 112.645 13.4151 112.501 13.4151H108.917C108.773 13.4151 108.653 13.5317 108.653 13.6746V17.663H106.932C106.788 17.663 106.672 17.7796 106.672 17.9228V20.9695C106.672 21.1124 106.788 21.2293 106.932 21.2293H108.653V29.1137C108.653 32.2981 110.256 33.9136 113.42 33.9136C114.704 33.9136 115.77 33.6507 116.774 33.0865C116.857 33.0428 116.907 32.9552 116.907 32.8623V29.9597C116.907 29.8721 116.86 29.7872 116.783 29.7407C116.705 29.6914 116.608 29.6887 116.528 29.7297C115.839 30.072 115.172 30.2308 114.425 30.2308C113.276 30.2308 112.761 29.7133 112.761 28.5578V21.2307H116.705C116.849 21.2307 116.965 21.1141 116.965 20.9708V17.9244C116.971 17.7812 116.854 17.6646 116.708 17.6646L116.705 17.663ZM130.445 17.6786V17.1887C130.445 15.7477 131.004 15.105 132.255 15.105C133.002 15.105 133.603 15.2518 134.276 15.4736C134.359 15.4993 134.444 15.4864 134.511 15.4374C134.58 15.3884 134.619 15.3098 134.619 15.2266V12.2393C134.619 12.1252 134.547 12.0241 134.433 11.9904C133.725 11.7815 132.817 11.5671 131.455 11.5671C128.148 11.5671 126.395 13.411 126.395 16.8974V17.6476H124.674C124.53 17.6476 124.411 17.7643 124.411 17.9072V20.9695C124.411 21.1124 124.53 21.2293 124.674 21.2293H126.395V33.3878C126.395 33.5331 126.515 33.6481 126.659 33.6481H130.24C130.387 33.6481 130.503 33.5331 130.503 33.3878V21.2301H133.849L138.975 33.3878C138.394 34.6639 137.821 34.9185 137.041 34.9185C136.41 34.9185 135.743 34.7323 135.064 34.3627C135.001 34.3298 134.923 34.3244 134.857 34.3435C134.788 34.3681 134.73 34.4173 134.702 34.4831L133.487 37.1198C133.428 37.2457 133.478 37.391 133.6 37.4565C134.868 38.1357 136.011 38.426 137.425 38.426C140.072 38.426 141.536 37.2048 142.823 33.9244L149.039 18.0334C149.073 17.9535 149.062 17.8631 149.011 17.7922C148.965 17.7218 148.884 17.6794 148.798 17.6794H145.067C144.954 17.6794 144.854 17.7498 144.818 17.8535L140.996 28.6509L136.811 17.8464C136.772 17.7459 136.675 17.6794 136.567 17.6794H130.445V17.6786ZM122.479 17.663H118.895C118.751 17.663 118.632 17.7796 118.632 17.9228V33.3878C118.632 33.5331 118.751 33.6481 118.895 33.6481H122.479C122.623 33.6481 122.742 33.5331 122.742 33.3878V17.9239C122.742 17.7807 122.626 17.6641 122.479 17.6641V17.663ZM120.708 10.6208C119.288 10.6208 118.136 11.7577 118.136 13.1621C118.136 14.5673 119.288 15.7055 120.708 15.7055C122.127 15.7055 123.276 14.5673 123.276 13.1621C123.276 11.758 122.125 10.6208 120.708 10.6208ZM152.101 22.6356C150.684 22.6356 149.579 21.5089 149.579 20.1406C149.579 18.7724 150.697 17.6328 152.114 17.6328C153.531 17.6328 154.636 18.7593 154.636 20.1264C154.636 21.4946 153.518 22.6356 152.101 22.6356ZM152.114 17.8809C150.822 17.8809 149.845 18.8968 149.845 20.1406C149.845 21.384 150.816 22.3862 152.101 22.3862C153.393 22.3862 154.37 21.3711 154.37 20.1264C154.37 18.8831 153.399 17.8809 152.114 17.8809ZM152.673 20.383L153.388 21.3709H152.784L152.142 20.4646H151.591V21.3709H151.088V18.7522H152.266C152.884 18.7522 153.288 19.0635 153.288 19.5876C153.291 20.0169 153.039 20.2792 152.676 20.383H152.673ZM152.247 19.2015H151.591V20.0298H152.247C152.574 20.0298 152.77 19.8712 152.77 19.6152C152.77 19.3458 152.574 19.2015 152.247 19.2015Z" fill="#1ED760"/>
</svg>
