<svg width="21" height="18" viewBox="0 0 21 18" fill="#3D3D3F" xmlns="http://www.w3.org/2000/svg">
<path d="M8.42319 1.00856C8.69129 1.27675 8.8419 1.64043 8.8419 2.01965C8.8419 2.39886 8.69129 2.76255 8.42319 3.03074L3.71527 7.74009L18.607 7.7501C18.9863 7.7501 19.35 7.90077 19.6182 8.16897C19.8864 8.43717 20.0371 8.80092 20.0371 9.18021C20.0371 9.5595 19.8864 9.92325 19.6182 10.1914C19.35 10.4596 18.9863 10.6103 18.607 10.6103L3.71384 10.6003L8.42319 15.3097C8.55978 15.4416 8.66873 15.5994 8.74368 15.7739C8.81863 15.9483 8.85808 16.136 8.85973 16.3259C8.86138 16.5158 8.82519 16.7041 8.75329 16.8799C8.68138 17.0556 8.57519 17.2153 8.44091 17.3496C8.30664 17.4838 8.14696 17.59 7.97121 17.6619C7.79545 17.7338 7.60714 17.77 7.41725 17.7684C7.22736 17.7667 7.0397 17.7273 6.86522 17.6523C6.69074 17.5774 6.53294 17.4684 6.40101 17.3318L1.27264 12.2049C0.874166 11.8065 0.558077 11.3335 0.342422 10.8129C0.126768 10.2923 0.0157738 9.73439 0.0157738 9.17091C0.0157738 8.60744 0.126768 8.04948 0.342422 7.52891C0.558077 7.00833 0.874166 6.53534 1.27264 6.13693L6.40101 1.00856C6.6692 0.740457 7.03289 0.589844 7.4121 0.589844C7.79131 0.589844 8.155 0.740457 8.42319 1.00856Z" />
</svg>
