<svg width="404" height="116" viewBox="0 0 404 116" fill="none" xmlns="http://www.w3.org/2000/svg">
<mask id="path-1-inside-1_878_63" fill="white">
<rect x="7" y="7" width="380" height="91" rx="1"/>
</mask>
<rect x="7" y="7" width="380" height="91" rx="1" stroke="#41BA77" stroke-width="7" mask="url(#path-1-inside-1_878_63)"/>
<path d="M0 5C0 2.23858 2.23858 0 5 0V0C7.76142 0 10 2.23858 10 5V10H5C2.23858 10 0 7.76142 0 5V5Z" fill="#41BA77"/>
<path d="M0 100C0 102.761 2.23858 105 5 105V105C7.76142 105 10 102.761 10 100V95H5C2.23858 95 0 97.2386 0 100V100Z" fill="#41BA77"/>
<path d="M394 100C394 102.761 391.761 105 389 105V105C386.239 105 384 102.761 384 100V95H389C391.761 95 394 97.2386 394 100V100Z" fill="#41BA77"/>
<path d="M394 6C394 3.23858 391.761 1 389 1V1C386.239 1 384 3.23858 384 6V11H389C391.761 11 394 8.76142 394 6V6Z" fill="#41BA77"/>
<g clip-path="url(#clip0_878_63)">
<path fill-rule="evenodd" clip-rule="evenodd" d="M392.861 112.487C392.48 112.234 391.925 111.642 391.065 110.985C390.579 110.613 389.465 109.978 389.071 109.599C388.727 109.262 388.691 109.073 388.632 108.721C388.528 108.095 388.989 107.431 389.663 107.281C390.171 107.167 390.696 107.357 391.173 107.543C391.46 107.655 391.857 107.924 392.091 108.073C392.307 108.209 392.37 108.274 392.607 108.44C392.921 108.661 393.036 108.784 392.848 108.489C392.627 108.04 392.255 107.27 391.864 106.61C391.566 106.109 391.509 106.034 391.259 105.657C390.992 105.256 390.829 104.967 390.562 104.537C390.375 104.232 390.011 103.602 389.848 103.234C389.625 102.732 389.321 101.893 389.528 101.394C389.69 101.004 390.26 100.717 390.693 100.784C391.26 100.872 391.767 101.49 391.985 101.731C392.378 102.165 392.709 102.706 393.082 103.436C393.557 104.366 394.287 105.634 394.389 105.917C394.298 105.558 393.97 104.848 393.922 104.492C393.878 104.168 394.019 103.73 394.309 103.53C394.555 103.36 394.864 103.227 395.163 103.194C395.481 103.158 395.864 103.269 396.046 103.432C396.583 103.913 396.984 105.124 396.977 105.054C396.943 104.67 396.665 103.864 396.758 103.46C396.819 103.194 397.093 102.883 397.263 102.792C397.527 102.652 397.865 102.525 398.177 102.487C398.429 102.456 398.841 102.633 398.972 102.74C399.285 103 399.704 103.887 399.845 104.2C399.903 104.329 399.794 103.804 399.896 103.409C400.084 102.676 401.413 102.114 401.898 103.43C402.124 104.044 402.11 104.017 402.246 104.436C402.406 104.928 402.491 105.227 402.58 105.591C402.674 105.981 402.872 106.868 402.889 107.323C402.9 107.636 402.838 108.368 402.696 108.841C402.696 108.841 402.062 110.361 402.124 110.933C402.186 111.504 402.224 111.496 402.326 111.882C402.427 112.268 402.726 112.722 402.726 112.722C402.726 112.722 401.995 113.069 401.563 113.137C401.172 113.198 400.471 112.607 400.279 112.42C400.014 112.161 399.684 112.334 399.623 112.609C399.527 113.042 399.279 113.845 398.967 113.992C398.358 114.278 397.024 114.657 395.988 114.982C395.988 114.982 395.852 113.963 395.353 113.76C394.983 113.608 394.321 113.271 393.937 113.106L392.861 112.487Z" fill="white"/>
<path fill-rule="evenodd" clip-rule="evenodd" d="M392.861 112.487C392.48 112.234 391.925 111.642 391.065 110.985C390.579 110.613 389.465 109.978 389.071 109.599C388.727 109.262 388.691 109.073 388.632 108.721C388.528 108.095 388.989 107.431 389.663 107.281C390.171 107.167 390.696 107.357 391.173 107.543C391.46 107.655 391.857 107.924 392.091 108.073C392.307 108.209 392.37 108.274 392.607 108.44C392.921 108.661 393.036 108.784 392.848 108.489C392.627 108.04 392.255 107.27 391.864 106.61C391.566 106.109 391.509 106.034 391.259 105.657C390.992 105.256 390.829 104.967 390.562 104.537C390.375 104.232 390.011 103.602 389.848 103.234C389.625 102.732 389.321 101.893 389.528 101.394C389.69 101.004 390.26 100.717 390.693 100.784C391.26 100.872 391.767 101.49 391.985 101.731C392.378 102.165 392.709 102.706 393.082 103.436C393.557 104.366 394.287 105.634 394.389 105.917C394.298 105.558 393.97 104.848 393.922 104.492C393.878 104.168 394.019 103.73 394.309 103.53C394.555 103.36 394.864 103.227 395.163 103.194C395.481 103.158 395.864 103.269 396.046 103.432C396.583 103.913 396.984 105.124 396.977 105.054C396.943 104.67 396.665 103.864 396.758 103.46C396.819 103.194 397.093 102.883 397.263 102.792C397.527 102.652 397.865 102.525 398.177 102.487C398.429 102.456 398.841 102.633 398.972 102.74C399.285 103 399.704 103.887 399.845 104.2C399.903 104.329 399.794 103.804 399.896 103.409C400.084 102.676 401.413 102.114 401.898 103.43C402.124 104.044 402.11 104.017 402.246 104.436C402.406 104.928 402.491 105.227 402.58 105.591C402.674 105.981 402.872 106.868 402.889 107.323C402.9 107.636 402.838 108.368 402.696 108.841C402.696 108.841 402.062 110.361 402.124 110.933C402.186 111.504 402.224 111.496 402.326 111.882C402.427 112.268 402.726 112.722 402.726 112.722C402.726 112.722 401.995 113.069 401.563 113.137C401.172 113.198 400.471 112.607 400.279 112.42C400.014 112.161 399.684 112.334 399.623 112.609C399.527 113.042 399.279 113.845 398.967 113.992C398.358 114.278 397.024 114.657 395.988 114.982C395.988 114.982 395.852 113.963 395.353 113.76C394.983 113.608 394.321 113.271 393.937 113.106L392.861 112.487Z" stroke="#4C4C4F" stroke-width="0.75" stroke-linecap="round" stroke-linejoin="round"/>
<path d="M400.802 110.278L399.732 106.988" stroke="#4C4C4F" stroke-width="0.75" stroke-linecap="round"/>
<path d="M398.888 110.913L397.799 107.615" stroke="#4C4C4F" stroke-width="0.75" stroke-linecap="round"/>
<path d="M395.926 108.258L397.005 111.509" stroke="#4C4C4F" stroke-width="0.75" stroke-linecap="round"/>
</g>
<defs>
<clipPath id="clip0_878_63">
<rect width="16" height="17" fill="white" transform="translate(388 99)"/>
</clipPath>
</defs>
</svg>
