<svg width="16" height="17" viewBox="0 0 16 17" fill="none" xmlns="http://www.w3.org/2000/svg">
<path fill-rule="evenodd" clip-rule="evenodd" d="M4.861 13.4873C4.47991 13.2337 3.92487 12.6424 3.06547 11.9849C2.57869 11.6132 1.46455 10.9775 1.07111 10.5986C0.727325 10.2624 0.691094 10.0734 0.632352 9.72127C0.527573 9.09498 0.988823 8.43082 1.66257 8.28117C2.17129 8.1673 2.69578 8.35744 3.17255 8.54313C3.46013 8.65468 3.85691 8.9242 4.09141 9.07299C4.30702 9.20899 4.3701 9.27365 4.60731 9.44048C4.92096 9.66133 5.03643 9.78362 4.84824 9.48939C4.62736 9.03964 4.25516 8.27001 3.8638 7.60966C3.56645 7.10907 3.50945 7.03401 3.25863 6.6571C2.99248 6.25572 2.82923 5.96705 2.56203 5.53657C2.37455 5.2316 2.01112 4.60213 1.84845 4.2344C1.62511 3.73183 1.32078 2.89281 1.52782 2.39438C1.69009 2.00408 2.26018 1.71673 2.69324 1.78414C3.26023 1.87214 3.76701 2.48971 3.98533 2.73103C4.37772 3.16497 4.70924 3.70597 5.08237 4.4364C5.55711 5.36617 6.28676 6.63368 6.38934 6.91684C6.29807 6.5585 5.97034 5.84801 5.92175 5.49157C5.87766 5.16837 6.0191 4.73016 6.30931 4.52961C6.55501 4.36034 6.86401 4.22728 7.16342 4.19408C7.48087 4.15817 7.86396 4.26916 8.04617 4.43179C8.58337 4.91329 8.98424 6.12365 8.97748 6.05434C8.94301 5.67017 8.66501 4.86361 8.75781 4.46015C8.8186 4.19433 9.09286 3.88328 9.26304 3.7922C9.52656 3.65185 9.86492 3.52501 10.1773 3.48653C10.4293 3.45614 10.8413 3.63344 10.9717 3.74035C11.2854 4.00009 11.7042 4.88707 11.8448 5.19992C11.9027 5.32937 11.794 4.80425 11.8959 4.40939C12.0844 3.67617 13.4127 3.11394 13.8985 4.43024C14.1244 5.04446 14.1104 5.01747 14.2465 5.43591C14.4063 5.92758 14.4911 6.22705 14.5801 6.59138C14.6743 6.98137 14.872 7.86766 14.8885 8.32285C14.8998 8.63569 14.8381 9.36764 14.6964 9.84063C14.6964 9.84063 14.0615 11.3614 14.1243 11.933C14.1859 12.504 14.2242 12.4957 14.3257 12.8823C14.4269 13.2679 14.7258 13.7217 14.7258 13.7217C14.7258 13.7217 13.9953 14.0686 13.5631 14.1365C13.1718 14.1975 12.471 13.6073 12.2785 13.4196C12.0135 13.1608 11.684 13.3342 11.6228 13.6086C11.5273 14.0424 11.2794 14.8454 10.9674 14.992C10.3581 15.2784 9.02368 15.6566 7.98844 15.9816C7.98844 15.9816 7.85178 14.9629 7.35268 14.7603C6.98255 14.6083 6.32095 14.2714 5.93699 14.106L4.861 13.4873Z" fill="white"/>
<path fill-rule="evenodd" clip-rule="evenodd" d="M4.861 13.4873C4.47991 13.2337 3.92487 12.6424 3.06547 11.9849C2.57869 11.6132 1.46455 10.9775 1.07111 10.5986C0.727325 10.2624 0.691094 10.0734 0.632352 9.72127C0.527573 9.09498 0.988823 8.43082 1.66257 8.28117C2.17129 8.1673 2.69578 8.35744 3.17255 8.54313C3.46013 8.65468 3.85691 8.9242 4.09141 9.07299C4.30702 9.20899 4.3701 9.27365 4.60731 9.44048C4.92096 9.66133 5.03643 9.78362 4.84824 9.48939C4.62736 9.03964 4.25516 8.27001 3.8638 7.60966C3.56645 7.10907 3.50945 7.03401 3.25863 6.6571C2.99248 6.25572 2.82923 5.96705 2.56203 5.53657C2.37455 5.2316 2.01112 4.60213 1.84845 4.2344C1.62511 3.73183 1.32078 2.89281 1.52782 2.39438C1.69009 2.00408 2.26018 1.71673 2.69324 1.78414C3.26023 1.87214 3.76701 2.48971 3.98533 2.73103C4.37772 3.16497 4.70924 3.70597 5.08237 4.4364C5.55711 5.36617 6.28676 6.63368 6.38934 6.91684C6.29807 6.5585 5.97034 5.84801 5.92175 5.49157C5.87766 5.16837 6.0191 4.73016 6.30931 4.52961C6.55501 4.36034 6.86401 4.22728 7.16342 4.19408C7.48087 4.15817 7.86396 4.26916 8.04617 4.43179C8.58337 4.91329 8.98424 6.12365 8.97748 6.05434C8.94301 5.67017 8.66501 4.86361 8.75781 4.46015C8.8186 4.19433 9.09286 3.88328 9.26304 3.7922C9.52656 3.65185 9.86492 3.52501 10.1773 3.48653C10.4293 3.45614 10.8413 3.63344 10.9717 3.74035C11.2854 4.00009 11.7042 4.88707 11.8448 5.19992C11.9027 5.32937 11.794 4.80425 11.8959 4.40939C12.0844 3.67617 13.4127 3.11394 13.8985 4.43024C14.1244 5.04446 14.1104 5.01747 14.2465 5.43591C14.4063 5.92758 14.4911 6.22705 14.5801 6.59138C14.6743 6.98137 14.872 7.86766 14.8885 8.32285C14.8998 8.63569 14.8381 9.36764 14.6964 9.84063C14.6964 9.84063 14.0615 11.3614 14.1243 11.933C14.1859 12.504 14.2242 12.4957 14.3257 12.8823C14.4269 13.2679 14.7258 13.7217 14.7258 13.7217C14.7258 13.7217 13.9953 14.0686 13.5631 14.1365C13.1718 14.1975 12.471 13.6073 12.2785 13.4196C12.0135 13.1608 11.684 13.3342 11.6228 13.6086C11.5273 14.0424 11.2794 14.8454 10.9674 14.992C10.3581 15.2784 9.02368 15.6566 7.98844 15.9816C7.98844 15.9816 7.85178 14.9629 7.35268 14.7603C6.98255 14.6083 6.32095 14.2714 5.93699 14.106L4.861 13.4873Z" stroke="#4C4C4F" stroke-width="0.75" stroke-linecap="round" stroke-linejoin="round"/>
<path d="M12.8019 11.2778L11.7324 7.98828" stroke="#4C4C4F" stroke-width="0.75" stroke-linecap="round"/>
<path d="M10.8879 11.9131L9.79883 8.61523" stroke="#4C4C4F" stroke-width="0.75" stroke-linecap="round"/>
<path d="M7.92578 9.25781L9.00504 12.5094" stroke="#4C4C4F" stroke-width="0.75" stroke-linecap="round"/>
</svg>
