<svg width="17" height="20" viewBox="0 0 17 20" fill="none" xmlns="http://www.w3.org/2000/svg">
<path d="M0.957034 18.3287V1.66978C0.956847 1.50651 1.00164 1.3462 1.08671 1.2057C1.17177 1.0652 1.29397 0.949695 1.44046 0.871325C1.58695 0.792955 1.75233 0.754611 1.91921 0.760322C2.08609 0.766033 2.24832 0.815589 2.38885 0.903782L15.7068 9.23376C15.8386 9.31589 15.947 9.42918 16.0222 9.56315C16.0973 9.69713 16.1367 9.84746 16.1367 10.0003C16.1367 10.1531 16.0973 10.3034 16.0222 10.4374C15.947 10.5713 15.8386 10.6846 15.7068 10.7668L2.38885 19.0957C2.24825 19.184 2.08593 19.2335 1.91895 19.2392C1.75198 19.2449 1.58654 19.2064 1.44001 19.1279C1.29349 19.0495 1.17131 18.9338 1.08631 18.7932C1.00132 18.6525 0.956663 18.4921 0.957034 18.3287V18.3287Z" fill="#FD695A"/>
</svg>
