<svg width="16" height="16" viewBox="0 0 16 16" fill="none" xmlns="http://www.w3.org/2000/svg">
<path d="M4.71875 4.25C4.71875 3.47335 4.08915 2.84375 3.3125 2.84375C2.53585 2.84375 1.90625 3.47335 1.90625 4.25C1.90625 5.02665 2.53585 5.65625 3.3125 5.65625C4.08915 5.65625 4.71875 5.02665 4.71875 4.25Z" stroke="white" stroke-linecap="round" stroke-linejoin="round"/>
<path d="M3.78125 14.0938H1.90625V11.2812H0.96875V8.46875C0.96875 8.22011 1.06752 7.98165 1.24334 7.80584C1.41915 7.63002 1.65761 7.53125 1.90625 7.53125H2.84375" stroke="white" stroke-linecap="round" stroke-linejoin="round"/>
<path d="M11.2813 4.25C11.2813 5.02665 11.9109 5.65625 12.6875 5.65625C13.4642 5.65625 14.0938 5.02665 14.0938 4.25C14.0938 3.47335 13.4642 2.84375 12.6875 2.84375C11.9109 2.84375 11.2813 3.47335 11.2813 4.25Z" stroke="white" stroke-linecap="round" stroke-linejoin="round"/>
<path d="M12.2188 14.0938H14.0938V11.2812H15.0313V8.46875C15.0313 8.22011 14.9325 7.98165 14.7567 7.80584C14.5808 7.63002 14.3424 7.53125 14.0938 7.53125H13.1563" stroke="white" stroke-linecap="round" stroke-linejoin="round"/>
<path d="M9.875 2.84375C9.875 1.80822 9.03553 0.96875 8 0.96875C6.96447 0.96875 6.125 1.80822 6.125 2.84375C6.125 3.87928 6.96447 4.71875 8 4.71875C9.03553 4.71875 9.875 3.87928 9.875 2.84375Z" stroke="white" stroke-linecap="round" stroke-linejoin="round"/>
<path d="M10.3438 15.0312H5.65625V11.2812H4.71875V8.46875C4.71875 7.97147 4.91629 7.49456 5.26792 7.14292C5.61956 6.79129 6.09647 6.59375 6.59375 6.59375H9.40625C9.90353 6.59375 10.3804 6.79129 10.7321 7.14292C11.0837 7.49456 11.2813 7.97147 11.2813 8.46875V11.2812H10.3438V15.0312Z" stroke="white" stroke-linecap="round" stroke-linejoin="round"/>
</svg>
