<svg width="14" height="13" viewBox="0 0 14 13" fill="none" xmlns="http://www.w3.org/2000/svg">
<path d="M8.121 0.437318C7.93353 0.624846 7.82821 0.879153 7.82821 1.14432C7.82821 1.40948 7.93353 1.66379 8.121 1.85132L11.413 5.14432L1 5.15132C0.734784 5.15132 0.48043 5.25667 0.292893 5.44421C0.105357 5.63175 0 5.8861 0 6.15132C0 6.41653 0.105357 6.67089 0.292893 6.85842C0.48043 7.04596 0.734784 7.15132 1 7.15132L11.414 7.14432L8.121 10.4373C8.02549 10.5296 7.94931 10.6399 7.8969 10.7619C7.84449 10.8839 7.8169 11.0151 7.81575 11.1479C7.8146 11.2807 7.8399 11.4124 7.89018 11.5353C7.94046 11.6582 8.01471 11.7698 8.10861 11.8637C8.2025 11.9576 8.31415 12.0319 8.43705 12.0821C8.55994 12.1324 8.69162 12.1577 8.8244 12.1566C8.95718 12.1554 9.0884 12.1278 9.2104 12.0754C9.33241 12.023 9.44275 11.9468 9.535 11.8513L13.121 8.26632C13.3996 7.98773 13.6207 7.65699 13.7715 7.29298C13.9222 6.92898 13.9999 6.53883 13.9999 6.14482C13.9999 5.75081 13.9222 5.36066 13.7715 4.99665C13.6207 4.63264 13.3996 4.3019 13.121 4.02332L9.535 0.437318C9.34747 0.249847 9.09316 0.144531 8.828 0.144531C8.56284 0.144531 8.30853 0.249847 8.121 0.437318Z" fill="#3D3D3F"/>
</svg>
